<svg xmlns="http://www.w3.org/2000/svg" width="14" height="16" viewBox="0 0 14 16">
    <metadata><?xpacket begin="﻿" id="W5M0MpCehiHzreSzNTczkc9d"?>
        <x:xmpmeta xmlns:x="adobe:ns:meta/" x:xmptk="Adobe XMP Core 5.6-c142 79.160924, 2017/07/13-01:06:39        ">
            <rdf:RDF xmlns:rdf="http://www.w3.org/1999/02/22-rdf-syntax-ns#">
                <rdf:Description rdf:about=""/>
            </rdf:RDF>
        </x:xmpmeta>


        <?xpacket end="w"?>
    </metadata>
    <defs>
        <style>
            .cls-1 {
            fill: #4ab8ea;
            fill-rule: evenodd;
            }
        </style>
    </defs>
    <path id="验证码" class="cls-1"
          d="M1034.91,382.86a9.548,9.548,0,0,1-2.36,3.161,9.142,9.142,0,0,1-3.45,1.958,0.5,0.5,0,0,1-.25,0,9.218,9.218,0,0,1-3.46-1.958,9.687,9.687,0,0,1-2.36-3.161,12.145,12.145,0,0,1-1.06-5.2,10.735,10.735,0,0,1,.74-3.858,0.515,0.515,0,0,1,.59-0.328,6.617,6.617,0,0,0,1.41.147,5.242,5.242,0,0,0,3.86-1.445,0.482,0.482,0,0,1,.38-0.177,0.518,0.518,0,0,1,.39.177,5.2,5.2,0,0,0,3.85,1.445,6.741,6.741,0,0,0,1.45-.155,0.511,0.511,0,0,1,.59.327,10.586,10.586,0,0,1,.75,3.867A12.146,12.146,0,0,1,1034.91,382.86Zm-0.49-8.251a7.84,7.84,0,0,1-1.23.1,7.39,7.39,0,0,1-2.66-.482,1.8,1.8,0,0,0-3.16,0,7.351,7.351,0,0,1-2.66.482,7.716,7.716,0,0,1-1.18-.088,9.291,9.291,0,0,0-.52,3.045,9.564,9.564,0,0,0,3.06,7.535,3.347,3.347,0,0,0,5.84-.03A10.339,10.339,0,0,0,1034.42,374.609Zm-6.81,7.9-2.16-2.247,0.74-.764,1.79,1.866,3.82-3.915,0.73,0.772-4.19,4.292A0.5,0.5,0,0,1,1027.61,382.5Z"
          transform="translate(-1021.97 -372)"/>
</svg>
