<svg xmlns="http://www.w3.org/2000/svg" width="14" height="16" viewBox="0 0 14 16">
    <metadata><?xpacket begin="﻿" id="W5M0MpCehiHzreSzNTczkc9d"?>
        <x:xmpmeta xmlns:x="adobe:ns:meta/" x:xmptk="Adobe XMP Core 5.6-c142 79.160924, 2017/07/13-01:06:39        ">
            <rdf:RDF xmlns:rdf="http://www.w3.org/1999/02/22-rdf-syntax-ns#">
                <rdf:Description rdf:about=""/>
            </rdf:RDF>
        </x:xmpmeta>


        <?xpacket end="w"?>
    </metadata>
    <defs>
        <style>
            .cls-1 {
            fill: #4ab8ea;
            fill-rule: evenodd;
            }
        </style>
    </defs>
    <path id="密码" class="cls-1"
          d="M1033.96,337h-9.92a1.989,1.989,0,0,1-2.04-1.939v-6.384a1.99,1.99,0,0,1,2.04-1.94h0.12a3.529,3.529,0,0,1-.04-0.565v-0.566a4.841,4.841,0,0,1,9.67,0v0.566a5.263,5.263,0,0,1-.03.565h0.2a1.99,1.99,0,0,1,2.04,1.94v6.384A1.989,1.989,0,0,1,1033.96,337Zm-0.89-10.871v-0.481a4.115,4.115,0,0,0-8.22,0v0.481a3.063,3.063,0,0,0,.05.608h8.12A4.055,4.055,0,0,0,1033.07,326.129Zm2.17,2.79a1.5,1.5,0,0,0-1.53-1.454h-9.42a1.5,1.5,0,0,0-1.53,1.454v5.9a1.5,1.5,0,0,0,1.53,1.455h9.42a1.5,1.5,0,0,0,1.53-1.455v-5.9Zm-5.04,3.6v1.788a0.7,0.7,0,0,1-.71.7h-0.98a0.7,0.7,0,0,1-.71-0.7v-1.788a1.929,1.929,0,0,1-.8-1.565,2,2,0,0,1,4,0A1.929,1.929,0,0,1,1030.2,332.523Zm-1.2-2.878a1.327,1.327,0,0,0-1.34,1.313,1.308,1.308,0,0,0,.85,1.221V334.4h0.98v-2.219a1.308,1.308,0,0,0,.85-1.221A1.327,1.327,0,0,0,1029,329.645Z"
          transform="translate(-1022 -321)"/>
</svg>
