<svg xmlns="http://www.w3.org/2000/svg" width="14" height="16" viewBox="0 0 14 16">
    <metadata><?xpacket begin="﻿" id="W5M0MpCehiHzreSzNTczkc9d"?>
        <x:xmpmeta xmlns:x="adobe:ns:meta/" x:xmptk="Adobe XMP Core 5.6-c142 79.160924, 2017/07/13-01:06:39        ">
            <rdf:RDF xmlns:rdf="http://www.w3.org/1999/02/22-rdf-syntax-ns#">
                <rdf:Description rdf:about=""/>
            </rdf:RDF>
        </x:xmpmeta>


        <?xpacket end="w"?>
    </metadata>
    <defs>
        <style>
            .cls-1 {
            fill: #4ab8ea;
            fill-rule: evenodd;
            }
        </style>
    </defs>
    <path id="用户名" class="cls-1"
          d="M1028.65,279.51a4.263,4.263,0,1,1,4-4.255A4.141,4.141,0,0,1,1028.65,279.51Zm0-7.616a3.368,3.368,0,1,0,3.16,3.361A3.27,3.27,0,0,0,1028.65,271.894Zm7.33,14.666h-0.01a0.431,0.431,0,0,1-.42.44,0.435,0.435,0,0,1-.42-0.447,0.357,0.357,0,0,1,.01-0.1c0.01-.17.02-0.343,0.02-0.517a6.677,6.677,0,0,0-2.67-5.4,0.452,0.452,0,0,1-.24-0.4,0.436,0.436,0,0,1,.42-0.448,0.4,0.4,0,0,1,.25.091v0a7.563,7.563,0,0,1,3.08,6.163C1036,286.144,1035.99,286.353,1035.98,286.56Zm-13.14-.628c0,0.174.01,0.347,0.02,0.517a0.357,0.357,0,0,1,.01.1,0.435,0.435,0,0,1-.42.447,0.431,0.431,0,0,1-.42-0.44h-0.01c-0.01-.207-0.02-0.416-0.02-0.628a7.33,7.33,0,0,1,5.77-7.328l1.45,0.783c-0.07,0-.15,0-0.22,0A6.365,6.365,0,0,0,1022.84,285.932Z"
          transform="translate(-1022 -271)"/>
</svg>
